<svg xmlns="http://www.w3.org/2000/svg">

  <symbol id="logo" viewBox="0 0 310 100" fill="currentColor"><path d="M108.2 11.2h.4l-.7 2.7c-51.1 2-81.6 18.1-77.2 44.4 3.1 18.7 27.5 20.1 59 20.2l-1.4 4.9c-38.7 0-64.1-1.7-68.4-25.5-4.1-23.5 24-46.4 88.3-46.7zM38.7 53.1c0 18.8 23.3 20.5 52.4 20.5l3.4-12.2c-11.2 1.3-36.6-2-36.6-15 0-13.9 19.1-22.9 46.5-22.7h.7l1.5-5.2h-.4c-44.9 0-67.5 13.9-67.5 34.6zm48.7 33.8c-39.3 5.2-73.7-.6-77.4-24.3C6.8 41.3 20.1 9.7 110 6l1.5-5.3h-.6C22.7 1-4 37.9.5 65c5 30.2 42.6 38.2 84 32.4l2.9-10.5zM115.9.7l21.2 9.9-23.1 1.8 19.5 1.3-22.1 7.4 29.4-6.1-3.4 10.3 10.8-10.6 14.5 7.9-9.7-9.5 28.7.8-26.2-2.8 9.3-4.2-14.5 1.9 3.5-8.9-8.7 9L115.9.7zm40.6 72.9h12.4v-11h-12.4v11zm-17.4-11v11h17.4l-17.4-11zm-22.6-1.7v12.7h16.8a20 20 0 00-16.8-12.7zm-3.7 0A20 20 0 0096 73.6h16.8V60.9zm1.9 39.1a20 20 0 0018.2-11.7H96.5c3 6.9 10 11.7 18.2 11.7zm107.6-39.1a20 20 0 00-16.8 12.7h16.8V60.9zm-49.2 12.7h29.8v-11h-29.8v11zm86.4 0h15.8V73c0-5.7-4.7-10.4-10.6-10.4H247v9.2h12.4v1.8zm20.7-11v11H310v-11h-29.8zM139.1 99.3h7.5v-11h-7.5v11zm87-38.4v12.7h16.8a20 20 0 00-16.8-12.7zM116.5 78.5v1.9h-3.7v-1.9H94.9l-.1 1.9.3 3h39.2l.3-3-.1-1.9h-18zm148.3 4.9c3.8 0 7.1-2 8.9-4.9H247v4.9h17.8zm-1.5 4.9v11H277l-8.4-11h-5.3zm25.6-4.9h12.4v-4.9h-12.4v4.9zm0 15.9h12.4v-11h-12.4v11zm-41.8 0h12.4v-11h-12.4v11zm-21-20.8v1.9h-3.7v-1.9h-17.9l-.1 1.9.3 3h39.2l.3-3-.1-1.9h-18zm-53 20.8h12.4v-11h-12.4v11zm-22.8 0h18.6v-11h-18.6v11zm-11.2-15.9h29.8v-4.9h-29.8v4.9zm85.1 16.6a20 20 0 0018.2-11.7H206a20 20 0 0018.2 11.7zm-51.1-16.6H193v-4.9h-19.9v4.9z"/></symbol>

  <symbol id="prev" viewBox="0 0 168 448"><path d="M156.8 136c0 2-1 4.3-2.6 5.8L56 240l98.3 98.3c1.4 1.4 2.4 3.7 2.4 5.7s-1 4.3-2.4 5.8l-12.6 12.4c-1.4 1.6-3.7 2.6-5.7 2.6s-4.3-1-5.8-2.6L13.8 245.8c-1.6-1.6-2.6-3.8-2.6-5.8s1-4.3 2.6-5.8l116.5-116.4c1.4-1.5 3.7-2.5 5.7-2.5s4.3 1 5.8 2.5l12.4 12.5a8.1 8.1 0 012.6 5.7z"/></symbol>

  <symbol id="next" viewBox="0 0 152 448"><path d="M148.8 240c0 2-1 4.3-2.6 5.8L29.8 362.1c-1.6 1.6-3.8 2.6-5.8 2.6s-4.3-1-5.8-2.6L5.8 349.9a8.1 8.1 0 01-2.5-5.8c0-2 1-4.3 2.5-5.8L104 240 5.7 141.7c-1.5-1.4-2.5-3.7-2.5-5.7s1-4.3 2.5-5.8l12.6-12.4c1.4-1.5 3.7-2.5 5.7-2.5s4.3 1 5.8 2.5l116.5 116.5a8.6 8.6 0 012.4 5.7z"/></symbol>

  <symbol id="phone" viewBox="0 0 64 64"><path d="M49.4 39.2a5.8 5.8 0 00-4.3-2c-1.6 0-3.1.7-4.3 2l-4 4-1-.5-1.3-.7a42 42 0 01-13.8-14.9l2.9-2.9 1.1-1.1c2.7-2.7 2.7-6.1 0-8.8l-3.5-3.5L20 9.6l-2.4-2.4c-1.2-1.2-2.7-1.9-4.2-1.9s-3 .6-4.3 1.9l-4.3 4.3A10 10 0 002 17.4c-.3 3.7.8 7.2 1.6 9.4a60.2 60.2 0 0029.6 31.8c2.9 1.4 6.8 3 11.2 3.3h.8c2.9 0 5.4-1.1 7.3-3.1l.1-.1 2.2-2.3 1.6-1.6a5.8 5.8 0 00-.1-8.7l-6.9-6.9zM54 52.5L52.5 54c-.8.8-1.7 1.6-2.4 2.5a6 6 0 01-4.8 2h-.6c-3.8-.2-7.3-1.7-9.9-3A55 55 0 016.9 25.8a17.6 17.6 0 01-1.4-7.9c.1-1.5.7-2.7 1.8-3.8l4.3-4.3c.6-.6 1.3-.9 1.9-.9.8 0 1.4.5 1.9.9l2.3 2.3 1.2 1.2 3.5 3.5c1.3 1.3 1.3 2.6 0 3.9l-1.1 1.1-3.2 3.1-.1.1c-1.1 1.1-.9 2.2-.7 2.9v.1a44.7 44.7 0 0018.3 18.4l.2.1c.4.2.8.3 1.3.3 1.1 0 1.7-.7 1.9-.9l4.3-4.3c.4-.4 1.1-1 1.9-1 .8 0 1.4.5 1.8.9l7 7c1.3 1.4 1.3 2.7 0 4zM34.4 16.2c3.3.6 6.3 2.1 8.8 4.5s4 5.4 4.5 8.8c.1.8.9 1.4 1.7 1.4h.3c.9-.2 1.6-1 1.4-2a19.6 19.6 0 00-16.1-16c-.9-.2-1.8.5-2 1.4-.1.9.5 1.8 1.4 1.9zM62 28.5A32.3 32.3 0 0035.5 2c-.9-.2-1.8.5-2 1.4-.2.9.5 1.8 1.4 2a28.8 28.8 0 0123.7 23.7c.1.8.9 1.4 1.7 1.4h.3c.9-.2 1.5-1.1 1.4-2z"/></symbol>

  <!-- <symbol id="email" viewBox="0 0 64 64"><path d="M54.7 9.2H9.3c-4 0-7.3 3.3-7.3 7.3v31c0 4 3.3 7.3 7.3 7.3h45.3c4 0 7.3-3.3 7.3-7.3v-31c.1-4-3.2-7.3-7.2-7.3zm4 38.3a4 4 0 01-4 4H9.3a4 4 0 01-4-4v-31a4 4 0 014-4h45.3a4 4 0 014 4l.1 31zM39.8 31.6l14.7-13.2c.7-.6.7-1.7.1-2.4-.6-.6-1.6-.7-2.3 0L32 34.1l-3.9-3.5-.3-.2-16.1-14.5c-.7-.6-1.8-.6-2.4.1-.6.7-.6 1.8.1 2.4l14.8 13.3L9.5 45.6c-.7.6-.7 1.7-.1 2.4.3.3.8.5 1.2.5.4 0 .8-.1 1.1-.4l15-14 4.1 3.6c.3.3.7.4 1.1.4.4 0 .8-.1 1.1-.4l4.2-3.7 15.1 14c.3.3.7.5 1.2.5.4 0 .9-.2 1.2-.5.6-.7.6-1.7-.1-2.4l-14.8-14z"/></symbol> -->

  <symbol id="email" viewBox="0 0 64 64"><path d="M54.7 2H9.3C5.3 2 2 6.3 2 11.6v40.7C2 57.7 5.3 62 9.3 62h45.3c4 0 7.3-4.3 7.3-9.6V11.7C62 6.3 58.7 2 54.7 2zm4 50.4c0 2.9-1.8 5.2-4 5.2H9.3c-2.2 0-4-2.3-4-5.2V11.7c0-2.9 1.8-5.2 4-5.2h45.3c2.2 0 4 2.3 4 5.2l.1 40.7zM39.8 31.5l14.7-17.3c.7-.8.7-2.2.1-3.1-.6-.9-1.7-1-2.4-.2L32 34.8l-3.9-4.6-.3-.3-16.1-19c-.7-.8-1.8-.7-2.4.2s-.6 2.3.1 3.1l14.8 17.4L9.5 49.8c-.7.8-.7 2.2-.1 3.1.3.5.8.7 1.2.7.4 0 .8-.2 1.1-.6l15-18.5 4.1 4.8c.3.4.7.6 1.1.6.4 0 .8-.2 1.1-.6l4.2-4.9L52.1 53c.3.4.7.6 1.2.6.4 0 .9-.2 1.2-.7.6-.9.6-2.3-.1-3.1L39.8 31.5z"/></symbol>

  <symbol id="address" viewBox="0 0 64 64"><path d="M32 2A24.1 24.1 0 008.3 30.6l.2.8a26 26 0 001.6 4.7 67.3 67.3 0 0020.8 25.5c.3.3.7.4 1.1.4.4 0 .8-.1 1.1-.4a67.3 67.3 0 0020.8-25.5 26 26 0 001.6-4.7l.2-.8A24.2 24.2 0 0032 2zm20.3 28l-.1.6c-.3 1.4-.8 2.8-1.4 4.1v.1a62.7 62.7 0 01-18.7 23.3 63.2 63.2 0 01-18.7-23.3v-.1c-.6-1.3-1.1-2.7-1.4-4.1l-.1-.5V30A20.7 20.7 0 0132.2 5.4c11.4 0 20.4 9.3 20.4 20.6a26 26 0 01-.3 4zM32 11c-8.4 0-15.3 6.9-15.3 15.3S23.6 41.6 32 41.6s15.3-6.9 15.3-15.3S40.4 11 32 11zm0 27.2c-6.6 0-11.9-5.3-11.9-11.9S25.4 14.4 32 14.4s11.9 5.3 11.9 11.9S38.5 38.2 32 38.2z"/></symbol>

  <symbol id="facebook" viewBox="0 0 64 64"><path d="M10.8 62h19.6V40.7h-7v-7h7v-8.8c0-4.8 3.9-8.8 8.8-8.8H48v7h-7a3.5 3.5 0 00-3.5 3.5v7h10.2l-1.2 7h-9.1V62h15.8c4.8 0 8.8-3.9 8.8-8.8V10.8C62 5.9 58.1 2 53.2 2H10.8A8.7 8.7 0 002 10.8v42.4c0 4.9 3.9 8.8 8.8 8.8zM5.5 10.8c0-2.9 2.4-5.3 5.3-5.3h42.4c2.9 0 5.3 2.4 5.3 5.3v42.4c0 2.9-2.4 5.3-5.3 5.3H40.9V44.2h8.5l2.3-14.1H40.9v-3.5h10.5V12.5H39.1c-6.8 0-12.3 5.5-12.3 12.3v5.3h-7v14.1h7v14.3h-16a5.3 5.3 0 01-5.3-5.3V10.8z"/></symbol>

  <symbol id="instagram" viewBox="0 0 64 64"><path d="M10.8 62h42.4c4.8 0 8.8-3.9 8.8-8.8V10.8C62 5.9 58.1 2 53.2 2H10.8A8.7 8.7 0 002 10.8v42.4c0 4.9 3.9 8.8 8.8 8.8zM5.5 10.8c0-2.9 2.4-5.3 5.3-5.3h42.4c2.9 0 5.3 2.4 5.3 5.3v42.4c0 2.9-2.4 5.3-5.3 5.3H10.8a5.3 5.3 0 01-5.3-5.3V10.8zm26.5 37a15.8 15.8 0 000-31.6 15.8 15.8 0 000 31.6zm0-28.1a12.3 12.3 0 110 24.6 12.3 12.3 0 010-24.6zm17.6 0c2.9 0 5.3-2.4 5.3-5.3s-2.4-5.3-5.3-5.3-5.3 2.4-5.3 5.3 2.4 5.3 5.3 5.3zm0-7c1 0 1.8.8 1.8 1.8s-.8 1.8-1.8 1.8-1.8-.8-1.8-1.8.8-1.8 1.8-1.8z"/></symbol>

  <symbol id="search" viewBox="0 0 64 64"><path d="M18.6 15.7c-.9-.9-2.3-.9-3.1 0A15 15 0 0011.2 28c.1 1.1 1.1 2 2.2 2h.2a2.2 2.2 0 002-2.4c-.3-3.3.8-6.4 3.1-8.7.7-1 .7-2.4-.1-3.2zm42.8 42.5L46.8 43.6A25.4 25.4 0 0027.3 2C13.4 2 2 13.4 2 27.3a25.4 25.4 0 0041.6 19.4l14.6 14.6a2.5 2.5 0 003.2 0c.8-.8.8-2.2 0-3.1zm-55-30.9A21 21 0 0127.3 6.4a21 21 0 0115 35.5l-.2.2-.2.2a20.7 20.7 0 01-14.6 5.9A20.8 20.8 0 016.4 27.3z"/></symbol>

  <symbol id="star" viewBox="0 0 64 64"><path d="M59.6 27.3a4.3 4.3 0 001.1-4.4 4 4 0 00-3.5-2.9l-14.3-2.1c-.3 0-.5-.2-.6-.5l-6.4-13A4.3 4.3 0 0032 2c-1.7 0-3.1.9-3.9 2.4l-6.4 13c-.1.3-.4.4-.6.5l-14.3 2a4.3 4.3 0 00-2.4 7.3l10.3 10.1c.2.2.3.5.2.8l-2.4 14.2c-.3 1.6.4 3.2 1.7 4.2 1.3 1 3.1 1.1 4.5.3l12.8-6.7c.3-.1.6-.1.8 0l12.8 6.7c.6.3 1.3.5 2 .5.9 0 1.8-.3 2.5-.8 1.3-1 2-2.6 1.7-4.2L49 38.1c0-.3 0-.6.2-.8l10.4-10zm-14 11.4L48 52.9c.1.5-.2.7-.3.8-.1.1-.5.3-.9.1L34 47.1c-.6-.3-1.3-.5-2-.5s-1.4.2-2 .5l-12.8 6.7c-.4.2-.8 0-.9-.1-.1-.1-.4-.4-.3-.8l2.4-14.2c.2-1.4-.2-2.8-1.2-3.8L6.8 24.8c-.3-.3-.3-.7-.2-.9 0-.2.2-.5.7-.6l14.3-2.1a4.2 4.2 0 003.2-2.4l6.4-13c.2-.4.6-.5.8-.5.2 0 .6 0 .8.5l6.4 13a4.2 4.2 0 003.2 2.4l14.3 2.1c.5.1.6.4.7.6 0 .2.1.5-.2.9L46.8 34.9c-1 1-1.4 2.4-1.2 3.8zm4.4-31c-.8-.6-1.8-.4-2.4.4l-1.8 2.5c-.6.8-.4 1.8.4 2.4.3.2.7.3 1 .3.5 0 1.1-.2 1.4-.7l1.8-2.5c.5-.8.3-1.9-.4-2.4zm-31.7 2.9L16.4 8c-.6-.8-1.6-.9-2.4-.4-.8.6-.9 1.6-.4 2.4l1.8 2.5c.3.5.9.7 1.4.7.4 0 .7-.1 1-.3.9-.5 1-1.6.5-2.3zM10 40.7a1.8 1.8 0 00-2.2-1.1l-3 1c-.9.3-1.4 1.3-1.1 2.2.2.7.9 1.2 1.6 1.2l.5-.1 3-1c1-.4 1.5-1.3 1.2-2.2zm22 14.7c-1 0-1.7.8-1.7 1.7v3.1c0 1 .8 1.7 1.7 1.7s1.7-.8 1.7-1.7v-3.1c0-.9-.7-1.7-1.7-1.7zm27.1-16l-3-1c-.9-.3-1.9.2-2.2 1.1-.3.9.2 1.9 1.1 2.2l3 1 .5.1c.7 0 1.4-.5 1.6-1.2.4-.9-.1-1.9-1-2.2z"/></symbol>

  <symbol id="cart" viewBox="0 0 64 64"><path d="M60.3 13.4a5.8 5.8 0 00-4.5-2H13.1l-.4-3.2C12.2 4.7 9.8 2 7.2 2H4c-1 0-1.8.8-1.8 1.8S3.1 5.5 4 5.5h3.1c.6 0 1.8 1.2 2 3.1l5 37.7a7.2 7.2 0 002.4 4.4c1 .9 2.2 1.4 3.4 1.7a6.5 6.5 0 1011.5.2h9.2a6.5 6.5 0 1011.6 0h4.6c1 0 1.8-.8 1.8-1.8s-.8-1.8-1.8-1.8H21.3c-1.7 0-3.4-1.4-3.6-3.1l-.4-2.8H52c1.7 0 3.3-.6 4.7-1.8a7.2 7.2 0 002.4-4.4L61.6 18c.3-1.7-.2-3.3-1.3-4.6zM28.6 55.5a2.9 2.9 0 11-5.8 0 2.9 2.9 0 015.8 0zm20.8 0a2.9 2.9 0 11-5.8 0 2.9 2.9 0 015.8 0zm8.2-39.8c.4.5.6 1.2.5 1.9L57 25.5H45l.7-10.6h10c.9 0 1.5.3 1.9.8zm-24.9 24L32 29.1h9.4l-.7 10.6h-8zm-1-14.2L31 14.9h11.3l-.7 10.6h-9.9zm-4.2-10.6l.7 10.6H15l-1.4-10.6h13.9zm-12 14.2h13l.7 10.6H16.9l-1.4-10.6zm36.6 10.6h-7.9l.7-10.6h11.7l-1 7.5a3.7 3.7 0 01-3.5 3.1z"/></symbol>

  <symbol id="close" viewBox="0 0 20 20"><path d="M1 0l19 19-1 1L0 1zm18 0l1 1L1 20l-1-1z"/></symbol>

  <symbol id="checked" viewBox="0 0 64 64"><path fill="#7cb342" d="M54.9 23.4a1 1 0 00-1 1v32.5H4V7.1h49.8v1a1 1 0 002 0v-3H2V59h53.9V24.4c0-.6-.5-1-1-1zm6.8-14a1 1 0 00-1.4 0L29.5 40.2 16.2 26.9a1 1 0 00-1.4 0 1 1 0 000 1.4l14 14c.2.2.5.3.7.3.3 0 .5-.1.7-.3l31.5-31.5c.4-.3.4-1 0-1.4z"/></symbol>

  <symbol id="truck" viewBox="0 0 64 64"><path d="M61.8 36l-9-14c-.2-.3-.5-.5-.8-.5H42v-6c0-.6-.4-1-1-1H3c-.6 0-1 .4-1 1v32c0 .6.4 1 1 1h7.1a6 6 0 005.9 5 6 6 0 005.9-5H44.1a6 6 0 005.9 5 6 6 0 005.9-5H61c.6 0 1-.4 1-1v-11l-.2-.5zM54 27.5l4.5 7H46v-7h8zm-38 24a4 4 0 01-4-4 4 4 0 014-4 4 4 0 014 4 4 4 0 01-4 4zm0-10a6 6 0 00-5.9 5H4v-2h5v-2H4v-26h36v2H6v2h34v22H23v2h17v2H21.9a6 6 0 00-5.9-5zm34 10a4 4 0 01-4-4 4 4 0 014-4 4 4 0 014 4 4 4 0 01-4 4zm5.9-5a6 6 0 00-5.9-5 6 6 0 00-5.9 5H42v-23h9.5l1.3 2H45c-.6 0-1 .4-1 1v9c0 .6.4 1 1 1h14.8l.2.3v5.7h-3v2h3v2h-4.1zm-40.9 0h2v2h-2v-2zm34 0h2v2h-2v-2zm-29-34H6v-2h14v2zm-16 0H2v-2h2v2z"/></symbol>

  <symbol id="store" viewBox="0 0 64 64"><path d="M61 54h-3V27.6a5 5 0 003-4.6v-2-.2L58 8.9V5c0-.6-.4-1-1-1H7c-.6 0-1 .4-1 1v3.9L3 20.8V23a5 5 0 003 4.6V54H3c-.6 0-1 .4-1 1v4c0 .6.4 1 1 1h58c.6 0 1-.4 1-1v-4c0-.6-.4-1-1-1zm-5-28a3 3 0 01-3-3v-1h6v1a3 3 0 01-3 3zM19.9 10l-.8 10h-5.9l1.7-10h5zm29.3 0l1.7 10H45l-.8-10h5zm-7.1 0l.8 10H37V10h5.1zM35 20h-6V10h6v10zm-8 0h-5.9l.8-10H27v10zm-14 2h6v1a3 3 0 01-3 3 3 3 0 01-3-3v-1zm8 1v-1h6v1a3 3 0 01-3 3 3 3 0 01-3-3zm8-1h6v1a3 3 0 01-3 3 3 3 0 01-3-3v-1zm8 0h6v1a3 3 0 01-3 3 3 3 0 01-3-3v-1zm8 1v-1h6v1a3 3 0 01-3 3 3 3 0 01-3-3zm7.8-3l-1.7-10h5l2.5 10h-5.8zM56 6v2H8V6h48zM7.8 10h5l-1.7 10H5.3l2.5-10zM5 23v-1h6v1c0 1.7-1.3 3-3 3s-3-1.3-3-3zm3 5a5 5 0 004-2 5 5 0 004 2 5 5 0 004-2c.9 1.2 2.4 2 4 2s3.1-.8 4-2a5 5 0 004 2 5 5 0 004-2 5 5 0 004 2 5 5 0 004-2 5 5 0 004 2 5 5 0 004-2 5 5 0 004 2v26h-2V33c0-.6-.4-1-1-1H43c-.6 0-1 .4-1 1v21H8V28zm44 26h-8V34h8v20zm8 4H4v-2h56v2zM39 32H11c-.6 0-1 .4-1 1v16c0 .6.4 1 1 1h28c.6 0 1-.4 1-1V33c0-.6-.4-1-1-1zm-1 16H12V34h26v14zm-20.3-6.3l-1.4-1.4 4-4 1.4 1.4-4 4zm.6 2.6l9-9 1.4 1.4-9 9-1.4-1.4zm7 0l4-4 1.4 1.4-4 4-1.4-1.4z"/></symbol>

  <symbol id="payment_1" viewBox="0 0 64 64"><path d="M2 51.4c0 2.7 2.2 4.8 4.8 4.8h12.6v3.9h-3.9V62h31v-1.9h-3.9v-3.9h14.5c2.7 0 4.8-2.2 4.8-4.8v-2.9H2v2.9zm38.7 8.7H21.4v-3.9h19.4v3.9zM3.9 50.4H60v1c0 1.6-1.3 2.9-2.9 2.9H6.8a2.9 2.9 0 01-2.9-2.9v-1zm53.3-39.7v1.9c1.6 0 2.9 1.3 2.9 2.9v31H62v-31c0-2.6-2.2-4.8-4.8-4.8zM3.9 15.5c0-1.6 1.3-2.9 2.9-2.9h21.3v-1.9H6.8A4.8 4.8 0 002 15.5v31h1.9v-31zm38.7 11.7a12.6 12.6 0 000-25.2c-7 0-12.5 5.6-12.5 12.6s5.6 12.6 12.5 12.6zm0-23.3a10.6 10.6 0 110 21.2 10.6 10.6 0 010-21.2zm1 15.5h-1.9c-1.1 0-1.9-.9-1.9-1.9h-1.9c0 2.1 1.7 3.9 3.9 3.9v1.9h1.9v-1.9c2.1 0 3.9-1.7 3.9-3.9s-1.7-3.9-3.9-3.9h-1.9c-1.1 0-1.9-.9-1.9-1.9s.9-1.9 1.9-1.9h1.9c1.1 0 1.9.9 1.9 1.9h1.9c0-2.1-1.7-3.9-3.9-3.9V5.9h-1.9v1.9c-2.1 0-3.9 1.7-3.9 3.9s1.7 3.9 3.9 3.9h1.9a1.9 1.9 0 110 3.8zm-32.9 2h18.4v-1.9H10.7a2.9 2.9 0 00-2.9 2.9v19.4c0 1.6 1.3 2.9 2.9 2.9h31c1.6 0 2.9-1.3 2.9-2.9V29.1h-1.9v12.6c0 .5-.4 1-1 1h-31a1 1 0 01-1-1V29.1h27.1v-1.9H9.7v-1.9H31v-1.9H9.7v-1c0-.6.5-1 1-1zm7.8 12.9a3.9 3.9 0 100 5.2 3.9 3.9 0 100-5.2zm-3 4.5a1.9 1.9 0 110-3.8c1 0 1.9.9 1.9 1.9.1 1-.8 1.9-1.9 1.9zm7.8-2a1.9 1.9 0 11-1.9-1.9c1 0 1.9.9 1.9 1.9z"/></symbol>

  <symbol id="payment_2" viewBox="0 0 64 64"><path d="M23 52h-2a3 3 0 00-3 3 3 3 0 003 3h2a3 3 0 003-3 3 3 0 00-3-3zm0 4h-2c-.6 0-1-.4-1-1s.4-1 1-1h2c.6 0 1 .4 1 1s-.5 1-1 1zm10-4h-2a3 3 0 00-3 3 3 3 0 003 3h2a3 3 0 003-3 3 3 0 00-3-3zm0 4h-2c-.6 0-1-.4-1-1s.4-1 1-1h2c.6 0 1 .4 1 1s-.5 1-1 1zM23 44h-2c-1.7 0-3 1.3-3 3s1.3 3 3 3h2c1.7 0 3-1.3 3-3s-1.4-3-3-3zm0 4h-2c-.6 0-1-.4-1-1s.4-1 1-1h2c.6 0 1 .4 1 1s-.5 1-1 1zm10-4h-2c-1.7 0-3 1.3-3 3s1.3 3 3 3h2c1.7 0 3-1.3 3-3s-1.3-3-3-3zm0 4h-2c-.6 0-1-.4-1-1s.4-1 1-1h2c.6 0 1 .4 1 1s-.5 1-1 1zM23 36h-2a3 3 0 00-3 3 3 3 0 003 3h2a3 3 0 003-3 3 3 0 00-3-3zm0 4h-2c-.6 0-1-.4-1-1s.4-1 1-1h2c.6 0 1 .4 1 1s-.5 1-1 1zm10-4h-2a3 3 0 00-3 3 3 3 0 003 3h2a3 3 0 003-3 3 3 0 00-3-3zm0 4h-2c-.6 0-1-.4-1-1s.4-1 1-1h2c.6 0 1 .4 1 1s-.5 1-1 1zm10 12h-2a3 3 0 00-3 3 3 3 0 003 3h2a3 3 0 003-3 3 3 0 00-3-3zm0 4h-2c-.6 0-1-.4-1-1s.4-1 1-1h2c.6 0 1 .4 1 1s-.5 1-1 1zm0-12h-2c-1.7 0-3 1.3-3 3s1.3 3 3 3h2c1.7 0 3-1.3 3-3s-1.3-3-3-3zm0 4h-2c-.6 0-1-.4-1-1s.4-1 1-1h2c.6 0 1 .4 1 1s-.5 1-1 1zm0-12h-2a3 3 0 00-3 3 3 3 0 003 3h2a3 3 0 003-3 3 3 0 00-3-3zm0 4h-2c-.6 0-1-.4-1-1s.4-1 1-1h2c.6 0 1 .4 1 1s-.5 1-1 1zm-20-6h-4v-2h4v2zm7 0h-4v-2h4v2zm4-2h4v2h-4v-2zm11 2h-4v-2h4v2zM58 5h-6.4A5 5 0 0047 2H17a5 5 0 00-5 5v18.8c0 1.6.2 3.1.6 4.6.3 1.2.5 2.4.5 3.5l.8 23.2a5 5 0 005 4.8h26.3a5 5 0 005-4.8l.8-23.2c0-1.2.2-2.4.5-3.6.3-1.4.5-2.9.5-4.4h6a4 4 0 004-4V9a4 4 0 00-4-4zm-8.5 24.9c-.3 1.3-.5 2.6-.6 4l-.8 23.2a3 3 0 01-3 2.9H18.9a3 3 0 01-3-2.9l-.8-23.2c-.1-1.3-.2-2.7-.6-4-.3-1.3-.5-2.7-.5-4.1V7a3 3 0 013-3h30c.9 0 1.7.4 2.2 1H33a4 4 0 00-3.9 3H21a3 3 0 00-3 3v16a3 3 0 003 3h22a3 3 0 003-3v-1h4c-.1 1.3-.2 2.6-.5 3.9zM33 26h11v1c0 .6-.4 1-1 1H21c-.6 0-1-.4-1-1V11c0-.6.4-1 1-1h8v12a4 4 0 004 4zm27-4a2 2 0 01-2 2H33a2 2 0 01-2-2V9c0-1.1.9-2 2-2h25a2 2 0 012 2v13zM50 12H33v-2h17v2zm5 4c-.5 0-1 .1-1.5.4-.4-.3-1-.4-1.5-.4a3 3 0 00-3 3 3 3 0 003 3c.5 0 1.1-.1 1.5-.4.5.3 1 .4 1.5.4 1.7 0 3-1.3 3-3s-1.3-3-3-3zm-3 4c-.6 0-1-.4-1-1s.4-1 1-1 1 .4 1 1-.4 1-1 1zm3 0h-.2l.2-1-.2-1h.2c.6 0 1 .4 1 1s-.4 1-1 1zm-20-2h-2v-2h2v2zm2 0v-2h2v2h-2zm4 0v-2h2v2h-2zm4 0v-2h2v2h-2zm-12 2h14v2H33v-2zM9.5 13.5a5.1 5.1 0 000 7.1L8 22a7 7 0 010-9.9l1.5 1.4zm-2.9 9.9l-1.4 1.4a11 11 0 010-15.6l1.4 1.4a9.1 9.1 0 000 12.8z"/></symbol>

  <symbol id="payment_3" viewBox="0 0 64 64"><path d="M9 31h8c.6 0 1-.4 1-1v-8c0-.6-.4-1-1-1H9c-.6 0-1 .4-1 1v8c0 .6.4 1 1 1zm7-8v2h-2v2h2v2h-6v-2h2v-2h-2v-2h6zm27 21c.9 0 1.8-.3 2.5-.9.7.6 1.6.9 2.5.9a4 4 0 004-3.8 4 4 0 00-6.5-3.4c-.7-.5-1.6-.8-2.5-.8a4 4 0 00-4 4 4 4 0 004 4zm6.5-5.3c.4.4.5.9.5 1.4 0 .5-.3 1-.7 1.4-.7.7-1.9.7-2.6 0a4 4 0 000-3 2 2 0 012.8.2zM43 38a2 2 0 012 2 2 2 0 01-2 2 2 2 0 01-2-2c0-1.1.9-2 2-2zm-32 2H8v-2h3v2zm2-2h3v2h-3v-2zm5 0h3v2h-3v-2zm5 0h3v2h-3v-2zm5 0h3v2h-3v-2zm2-2H8v-2h22v2zm6 0h-4v-2h4v2zm-3 2h3v2h-3v-2zm-5-20H8v-2h20v2zm29.9-2.9A5 5 0 0053 11H7a5 5 0 00-5 5v28a5 5 0 004.1 4.9A5 5 0 0011 53h46a5 5 0 005-5V20a5 5 0 00-4.1-4.9zM4 44V16a3 3 0 013-3h46a3 3 0 013 3v28a3 3 0 01-3 3H7a3 3 0 01-3-3zm56 4a3 3 0 01-3 3H11a3 3 0 01-2.8-2H53a5 5 0 005-5V17.2a3 3 0 012 2.8v28zm-8-30h-9v-2h9v2zm-5 2h5v2h-5v-2z"/></symbol>

  <symbol id="payment_4" viewBox="0 0 64 64"><path d="M60 36h-1V25l-.1-.5 1.8-1.8c.4-.4.4-1 0-1.4L59 19.6V13c0-.6-.4-1-1-1h-6.6l-9.7-9.7a1 1 0 00-1.4 0l-2.8 2.8-2.8-2.8a1 1 0 00-1.4 0l-2.8 2.8-2.8-2.8a1 1 0 00-1.4 0L16.6 12H10a7 7 0 00-7 7v36a7 7 0 007 7h48c.6 0 1-.4 1-1V50h1c.6 0 1-.4 1-1V37c0-.6-.4-1-1-1zM36 9.4a8 8 0 005 1.7c1.8 0 3.5-.6 5-1.7l7.7 7.7a8.4 8.4 0 00-1.5 7h-7.3a9.2 9.2 0 00-4.4-4.1 9.7 9.7 0 00-7.3-.2 9.4 9.4 0 00-5 4.4h-6.7L36 9.4zM58.6 22l-2 2h-2.3c-.6-1.9-.3-3.9.8-5.5l3.5 3.5zm-28.1 2a7.5 7.5 0 0112 0h-12zM57 14v3.6L53.4 14H57zM41 4.4l3.5 3.5a6 6 0 01-7 0L41 4.4zm-7 0l2.1 2.1L18.6 24h-4.2L34 4.4zm-7 0l2.1 2.1L11.6 24H10c-.8 0-1.5-.2-2.1-.5L27 4.4zM10 14h4.6l-2 2H11v1.6l-4.7 4.7a4.7 4.7 0 01-1.2-2.8l.9-.6a5 5 0 013-.9v-2c-1.2 0-2.4.3-3.5.9A5 5 0 0110 14zm47 42h-4v2h4v2H10a5 5 0 01-4.5-2.9c1.1.6 2.3.9 3.5.9v-2c-1.1 0-2.2-.3-3.1-.9l-.9-.6V28.9A8 8 0 009 30v-2c-1.1 0-2.2-.3-3.1-.9l-.9-.6v-2.6l.1.1.2.2.1.1.2.1.1.1.2.1.1.1.2.1.1.1.2.1.1.1.2.1.1.1.2.1.1.1.2.1h.1l.2.1h.1l.2.1h.1l.2.1h48.5v2h-4v2h4v6h-9c-3.9 0-7 3.1-7 7s3.1 7 7 7h9V56zm2-8H48a5 5 0 01-5-5 5 5 0 015-5h11v10zm-14-5c0 1.7 1.3 3 3 3s3-1.3 3-3-1.3-3-3-3-3 1.3-3 3zm4 0c0 .6-.4 1-1 1s-1-.4-1-1 .4-1 1-1 1 .4 1 1zm2-13h-4v-2h4v2zm-6 0h-4v-2h4v2zm-10-2h4v2h-4v-2zm-6 0h4v2h-4v-2zm-6 0h4v2h-4v-2zm-6 0h4v2h-4v-2zm-6 0h4v2h-4v-2zm36 28h4v2h-4v-2zm-6 0h4v2h-4v-2zm-6 0h4v2h-4v-2zm-6 0h4v2h-4v-2zm-6 0h4v2h-4v-2zm-6 0h4v2h-4v-2zm-6 0h4v2h-4v-2z"/></symbol>

  <symbol id="payment_5" viewBox="0 0 64 64"><path d="M58.7 42v-2.4h1.8c.8 0 1.4-.6 1.4-1.4V35c0-.8-.6-1.4-1.4-1.4H58v-9.7l.8.1.8-.1c.8-.2 1.5-.7 1.9-1.5.4-.7.5-1.6.3-2.4-.2-.8-.7-1.5-1.5-1.9L33.7 2.6c-.5-.3-1.1-.4-1.7-.4-.6 0-1.2.2-1.7.4L3.6 18c-1.5.9-2 2.8-1.2 4.3.4.7 1.1 1.3 1.9 1.5.6.2 1.1.2 1.7 0v9.7H3.4c-.8 0-1.4.6-1.4 1.4v3.2c0 .8.6 1.4 1.4 1.4h1.8V42c0 .8.6 1.4 1.4 1.4h1.1V52h-1c-.8 0-1.4.6-1.4 1.4v2.4H3.4c-.8 0-1.4.6-1.4 1.4v3.2c0 .8.6 1.4 1.4 1.4h26.7c.5 0 .9-.4.9-.9s-.4-.9-.9-.9H3.8v-2.5h56.5V60h-26c-.5 0-.9.4-.9.9s.4.9.9.9h26.4c.8 0 1.4-.6 1.4-1.4v-3.2c0-.8-.6-1.4-1.4-1.4h-1.8v-2.4c0-.8-.6-1.4-1.4-1.4h-1.1v-8.6h1.1c.6 0 1.2-.6 1.2-1.4zM5.9 22c-.3.2-.7.2-1.1.1-.4-.1-.7-.3-.9-.7-.4-.7-.2-1.6.5-1.9L31.2 4.1l.8-.2.8.2 26.7 15.4c.3.2.6.5.7.9.1.4 0 .8-.1 1.1-.2.3-.5.6-.9.7a2 2 0 01-1.1-.1L32.4 7.2l-.4-.1-.4.1L5.9 22zM7 41.6v-2.1h10.9v2.1H7zm8.5 1.8V52h-6v-8.6h6zm2.4 12.4H7v-2.1h10.9v2.1zm6.9-2.4v2.4h-5.1v-2.4c0-.8-.6-1.4-1.4-1.4h-1.1v-8.6h1.1c.8 0 1.4-.6 1.4-1.4v-2.4h5.1V42c0 .8.6 1.4 1.4 1.4h1.1V52h-1.1c-.8 0-1.4.6-1.4 1.4zm1.8-11.8v-2.1h10.9v2.1H26.6zm8.4 1.8V52h-6v-8.6h6zm2.4 12.4H26.6v-2.1h10.9v2.1zm6.9-2.4v2.4h-5.1v-2.4c0-.8-.6-1.4-1.4-1.4h-1.1v-8.6h1.1c.8 0 1.4-.6 1.4-1.4v-2.4h5.1V42c0 .8.6 1.4 1.4 1.4h1.1V52h-1.1c-.7 0-1.4.6-1.4 1.4zm12.7.3v2.1H46.1v-2.1H57zM48.5 52v-8.6h6V52h-6zM57 41.6H46.1v-2.1H57v2.1zM3.8 37.8v-2.5h26.4c.5 0 .9-.4.9-.9s-.4-.9-.9-.9H7.7V23L32 9l24.3 14v10.5H34.1c-.5 0-.9.4-.9.9s.4.9.9.9h26.2v2.5H3.8zm32-21.9c0-2-1.7-3.7-3.7-3.7s-3.7 1.7-3.7 3.7 1.7 3.7 3.7 3.7c2.1 0 3.7-1.6 3.7-3.7zm-3.7 2a1.9 1.9 0 110-3.8c1 0 1.9.9 1.9 1.9.1 1-.8 1.9-1.9 1.9zm-10.7 8.2c.2-.4.4-.8.4-1.3 0-1.4-1.1-2.4-2.4-2.4h-2c-.5 0-.9.4-.9.9V30c0 .2.1.5.3.6l.6.3h2.3c1.5 0 2.7-1.2 2.7-2.7 0-.9-.4-1.6-1-2.1zm-3.2-2h1.1c.4 0 .7.3.7.7 0 .4-.3.7-.7.7h-1.1v-1.4zm1.5 5h-1.4v-1.9h1.4c.5 0 1 .4 1 1-.1.5-.5.9-1 .9zm8.8-6.1s0-.1 0 0c-.2-.4-.5-.7-1-.7-.4 0-.8.3-1 .6L24 29.7c-.2.5.1 1 .5 1.1.5.2 1-.1 1.1-.5l.4-1.1h3l.4 1.1c.1.4.5.6.8.6l.3-.1c.5-.2.7-.7.5-1.1L28.5 23zm-1.8 4.4l.8-2.1.8 2.1h-1.6zm7.1 3.5a.9.9 0 01-.9-.9v-6.8c0-.4.3-.7.6-.8.4-.1.8 0 1 .3l3.2 4.6v-4.1c0-.5.4-.9.9-.9s.9.4.9.9l.1 6.6c0 .5-.3.9-.7 1a1 1 0 01-1.1-.4l-3-4.4v4c-.1.5-.5.9-1 .9zM42 30v-6.9c0-.5.4-.9.9-.9s.9.4.9.9v1.5l2.2-2.1c.4-.3.9-.3 1.2.1.3.4.3.9-.1 1.2l-2.8 2.6 3.1 3c.3.3.4.9 0 1.2l-.6.3-.6-.2-2.5-2.4V30c0 .5-.4.9-.9.9-.4 0-.8-.4-.8-.9z"/></symbol>

  <symbol id="trash" viewBox="0 0 64 64"><path d="M20 25.8v22.5c0 .7-.5 1.3-1.3 1.3h-2.5c-.7 0-1.3-.5-1.3-1.3V25.8c0-.7.5-1.3 1.3-1.3h2.5c.8 0 1.3.5 1.3 1.3zm10 0v22.5c0 .7-.5 1.3-1.3 1.3h-2.5c-.7 0-1.3-.5-1.3-1.3V25.8c0-.7.5-1.3 1.3-1.3h2.5c.8 0 1.3.5 1.3 1.3zm10 0v22.5c0 .7-.5 1.3-1.3 1.3h-2.5c-.7 0-1.3-.5-1.3-1.3V25.8c0-.7.5-1.3 1.3-1.3h2.5c.8 0 1.3.5 1.3 1.3zM45 54V17H10v37c0 1.9 1.1 3 1.3 3h32.5c.1 0 1.2-1.1 1.2-3zM18.8 12h17.5l-1.9-4.6-.7-.4H21.3l-.7.4-1.8 4.6zM55 13.3v2.5c0 .7-.5 1.3-1.3 1.3H50v37c0 4.3-2.8 8-6.3 8H11.3C7.8 62 5 58.5 5 54.2V17H1.3C.5 17 0 16.5 0 15.8v-2.5c0-.8.5-1.3 1.3-1.3h12.1l2.7-6.5A6 6 0 0121.3 2h12.5c2.1 0 4.4 1.6 5.2 3.5l2.7 6.5h12.1c.7 0 1.2.5 1.2 1.3z"/></symbol>

  <symbol id="checkbox" viewBox="0 0 64 64"><path d="M56 20.8c0 .8-.3 1.5-.9 2.1L28.5 49.5a2.9 2.9 0 01-4.2 0L8.9 34.1a2.9 2.9 0 010-4.2l4.2-4.2a2.9 2.9 0 014.2 0l9.1 9.1 20.3-20.3a2.9 2.9 0 014.2 0l4.2 4.2c.6.5.9 1.3.9 2.1z"/></symbol>

  <symbol id="uncheck" viewBox="0 0 64 64"><path d="M62 50.3c0 1.3-.5 2.5-1.4 3.4l-6.9 6.9c-.9.9-2.2 1.4-3.4 1.4s-2.5-.5-3.4-1.4L32 45.7 17.2 60.6c-1 .9-2.2 1.4-3.5 1.4s-2.5-.5-3.4-1.4l-6.9-6.9c-.9-.9-1.4-2.2-1.4-3.4s.5-2.5 1.4-3.4L18.3 32 3.4 17.2C2.5 16.2 2 15 2 13.7s.5-2.5 1.4-3.4l6.9-6.9c.9-.9 2.2-1.4 3.4-1.4s2.5.5 3.4 1.4L32 18.3 46.8 3.4c1-.9 2.2-1.4 3.5-1.4s2.5.5 3.4 1.4l6.9 6.9c.9.9 1.4 2.2 1.4 3.4s-.5 2.5-1.4 3.4L45.7 32l14.8 14.8c1 1 1.5 2.2 1.5 3.5z"/></symbol>

  <symbol id="plus" viewBox="0 0 64 64"><path d="M51.1 30.6v2.7c0 .8-.6 1.4-1.4 1.4h-15v15c0 .8-.6 1.4-1.4 1.4h-2.7c-.8 0-1.4-.6-1.4-1.4v-15h-15c-.8 0-1.4-.6-1.4-1.4v-2.7c0-.8.6-1.4 1.4-1.4h15v-15c0-.8.6-1.4 1.4-1.4h2.7c.8 0 1.4.6 1.4 1.4v15h15c.8.1 1.4.7 1.4 1.4zm5.4 19.1V14.3c0-3.8-3.1-6.8-6.8-6.8H14.3a6.8 6.8 0 00-6.8 6.8v35.5c0 3.8 3.1 6.8 6.8 6.8h35.5a6.9 6.9 0 006.7-6.9zM62 14.3v35.5C62 56.5 56.5 62 49.7 62H14.3C7.5 62 2 56.5 2 49.7V14.3C2 7.5 7.5 2 14.3 2h35.5C56.5 2 62 7.5 62 14.3z"/></symbol>

  <symbol id="minus" viewBox="0 0 64 64"><path d="M51.1 30.6v2.7c0 .8-.6 1.4-1.4 1.4H14.3c-.8 0-1.4-.6-1.4-1.4v-2.7c0-.8.6-1.4 1.4-1.4h35.5c.7.1 1.3.7 1.3 1.4zm5.4 19.1V14.3c0-3.8-3.1-6.8-6.8-6.8H14.3a6.8 6.8 0 00-6.8 6.8v35.5c0 3.8 3.1 6.8 6.8 6.8h35.5a6.9 6.9 0 006.7-6.9zM62 14.3v35.5C62 56.5 56.5 62 49.7 62H14.3C7.5 62 2 56.5 2 49.7V14.3C2 7.5 7.5 2 14.3 2h35.5C56.5 2 62 7.5 62 14.3z"/></symbol>

  <symbol id="save" viewBox="0 0 64 64"><path d="M52.8 35.5V47c0 5.7-4.7 10.4-10.4 10.4h-30C6.7 57.4 2 52.7 2 47V17C2 11.3 6.7 6.6 12.4 6.6h30c1.4 0 2.9.3 4.2.9.4.1.6.5.7.8.1.4 0 .8-.3 1l-1.8 1.8c-.2.2-.5.4-.8.4l-.3-.1-1.6-.2h-30A5.8 5.8 0 006.7 17v30c0 3.2 2.6 5.8 5.8 5.8h30c3.2 0 5.8-2.6 5.8-5.8v-9.2c0-.3.1-.6.3-.8l2.3-2.3c.3-.3.5-.4.8-.4l.4.1c.4.3.7.7.7 1.1zm8.3-17.6L31.8 47.3c-1.2 1.2-3 1.2-4.1 0L12.1 31.7c-1.2-1.2-1.2-3 0-4.1l4-4c1.2-1.2 3-1.2 4.1 0l9.5 9.5L53.1 9.8c1.2-1.2 3-1.2 4.1 0l4 4a2.9 2.9 0 01-.1 4.1z"/></symbol>

  <symbol id="range" viewBox="0 0 64 64"><path d="M62 32a2 2 0 01-.6 1.5l-8.6 8.6a2 2 0 01-1.5.6c-1.2 0-2.1-1-2.1-2.1v-4.3H14.9v4.3c0 1.2-1 2.1-2.1 2.1a2 2 0 01-1.5-.6l-8.6-8.6c-.5-.4-.7-.9-.7-1.5s.2-1.1.6-1.5l8.6-8.6a2 2 0 011.5-.6c1.2 0 2.1 1 2.1 2.1v4.3h34.3v-4.3c0-1.2 1-2.1 2.1-2.1a2 2 0 011.5.6l8.6 8.6c.5.4.7.9.7 1.5z"/></symbol>

  <symbol id="filters" viewBox="0 0 64 64"><path d="M15.8 49.5v5H2v-5h13.8zm13.7-5c1.4 0 2.5 1.1 2.5 2.5v10c0 1.4-1.1 2.5-2.5 2.5h-10A2.5 2.5 0 0117 57V47c0-1.4 1.1-2.5 2.5-2.5h10zm6.3-15v5H2v-5h33.8zm-25-20v5H2v-5h8.8zm51.2 40v5H33.3v-5H62zm-37.5-45C25.9 4.5 27 5.6 27 7v10c0 1.4-1.1 2.5-2.5 2.5h-10A2.5 2.5 0 0112 17V7c0-1.4 1.1-2.5 2.5-2.5h10zm25 20c1.4 0 2.5 1.1 2.5 2.5v10c0 1.4-1.1 2.5-2.5 2.5h-10A2.5 2.5 0 0137 37V27c0-1.4 1.1-2.5 2.5-2.5h10zm12.5 5v5h-8.8v-5H62zm0-20v5H28.3v-5H62z"/></symbol>

  <symbol id="info" viewBox="0 0 64 64"><path d="M42 50.8v-6.3c0-.7-.5-1.3-1.3-1.3H37v-20c0-.7-.5-1.3-1.3-1.3H23.3c-.7 0-1.3.5-1.3 1.3v6.3c0 .7.5 1.3 1.3 1.3H27v12.5h-3.8c-.7 0-1.3.5-1.3 1.3v6.3c0 .7.5 1.3 1.3 1.3h17.5c.8-.2 1.3-.7 1.3-1.4zm-5-35V9.5c0-.7-.5-1.3-1.3-1.3h-7.5c-.7 0-1.3.5-1.3 1.3v6.3c0 .7.5 1.3 1.3 1.3h7.5c.8-.1 1.3-.6 1.3-1.3zM62 32a30 30 0 11-60 0 30 30 0 0160 0z"/></symbol>

  <symbol id="preview" viewBox="0 0 64 64"><path d="M35.4 46.5h-1.8c-.7 0-1.2.5-1.2 1.2v5.4c0 .7.5 1.2 1.2 1.2h1.8a3 3 0 003-3v-1.8a3 3 0 00-3-3zm1.2 4.8c0 .7-.5 1.2-1.2 1.2h-1.2v-4.3h1.2c.7 0 1.2.5 1.2 1.2v1.9zm-7.2-4.8h-3c-.5 0-.9.4-.9.9s.4.9.9.9h2.8v1.2h-2.8c-.5 0-.9.4-.9.9s.4.9.9.9h2.8v1.2h-2.8c-.5 0-.9.4-.9.9s.4.9.9.9h3c.9 0 1.6-.7 1.6-1.6V48c0-.8-.7-1.5-1.6-1.5zm32.5 5.9l-1.5-5.2c-.1-.5-.6-.7-1.1-.6-.5.1-.7.6-.6 1.1l1.1 3.7-10.6-5.9v-6.7c0-.5-.4-.9-.9-.9s-.9.4-.9.9v6.9l-4.3 2.4c-1-4.8-5.2-8.6-10.2-8.9v-2.4l14.6-8.1v6.1c0 .5.4.9.9.9s.9-.4.9-.9V27c0-.4-.2-.8-.7-1.1L33 17.2V5l2.7 2.7c.1.2.3.3.5.3s.5-.1.6-.3c.3-.3.3-.9 0-1.3L33 2.7c-.3-.3-.6-.4-1-.4s-.7.1-1 .4l-3.8 3.8c-.3.3-.3.9 0 1.3.3.3.9.3 1.3 0L31.1 5v12L25 20.4c-.4.2-.6.8-.3 1.2.2.4.8.6 1.2.3l6.1-3.4 14.8 8.3L32 35.1l-14.8-8.3 5.6-3.2c.4-.2.6-.8.3-1.2-.2-.4-.8-.6-1.2-.3l-6.5 3.6c-.4.2-.7.6-.7 1.1v18.6L4.2 51.3l1-3.7c.1-.5-.1-1-.6-1.1-.5-.1-1 .1-1.1.6L2 52.3c0 .4 0 .8.2 1.2.2.3.5.5.8.6l5.2 1.5h.2c.4 0 .7-.3.9-.6.1-.5-.1-1-.6-1.1L5 52.8 15.5 47l5.1 2.9v.5a11.4 11.4 0 1022.8 0v-.5l5.1-2.9L59 52.8l-3.7 1.1c-.5.1-.7.6-.6 1.1.1.4.5.6.9.6h.2l5.2-1.5c.4-.1.7-.3.8-.7.2-.3.2-.7.1-1zm-45.1-6.7l-.2-.1v-17l14.6 8.1v2.4c-5 .4-9.2 4.1-10.2 8.9l-4.2-2.3zM32 60a9.6 9.6 0 110-19.2A9.6 9.6 0 0132 60z"/></symbol>

  <symbol id="play" viewBox="0 0 64 64"><path d="M32 2C15.5 2 2 15.5 2 32s13.5 30 30 30 30-13.5 30-30S48.5 2 32 2zm0 57.5a27.5 27.5 0 110-55 27.5 27.5 0 010 55zm11.9-28.6L26.4 19.7a1 1 0 00-1.3 0c-.4.2-.7.6-.7 1.1v22.5c0 .5.2.9.7 1.1l.6.2.7-.2 17.5-11.3c.4-.2.6-.6.6-1.1s-.2-.8-.6-1.1zM27 41V23l13.9 9L27 41z"/></symbol>



</svg>
