<svg xmlns="http://www.w3.org/2000/svg">

  <symbol id="logo" viewBox="0 0 310 100" fill="currentColor"><path d="M108.2 11.2h.4l-.7 2.7c-51.1 2-81.6 18.1-77.2 44.4 3.1 18.7 27.5 20.1 59 20.2l-1.4 4.9c-38.7 0-64.1-1.7-68.4-25.5-4.1-23.5 24-46.4 88.3-46.7zM38.7 53.1c0 18.8 23.3 20.5 52.4 20.5l3.4-12.2c-11.2 1.3-36.6-2-36.6-15 0-13.9 19.1-22.9 46.5-22.7h.7l1.5-5.2h-.4c-44.9 0-67.5 13.9-67.5 34.6zm48.7 33.8c-39.3 5.2-73.7-.6-77.4-24.3C6.8 41.3 20.1 9.7 110 6l1.5-5.3h-.6C22.7 1-4 37.9.5 65c5 30.2 42.6 38.2 84 32.4l2.9-10.5zM115.9.7l21.2 9.9-23.1 1.8 19.5 1.3-22.1 7.4 29.4-6.1-3.4 10.3 10.8-10.6 14.5 7.9-9.7-9.5 28.7.8-26.2-2.8 9.3-4.2-14.5 1.9 3.5-8.9-8.7 9L115.9.7zm40.6 72.9h12.4v-11h-12.4v11zm-17.4-11v11h17.4l-17.4-11zm-22.6-1.7v12.7h16.8a20 20 0 00-16.8-12.7zm-3.7 0A20 20 0 0096 73.6h16.8V60.9zm1.9 39.1a20 20 0 0018.2-11.7H96.5c3 6.9 10 11.7 18.2 11.7zm107.6-39.1a20 20 0 00-16.8 12.7h16.8V60.9zm-49.2 12.7h29.8v-11h-29.8v11zm86.4 0h15.8V73c0-5.7-4.7-10.4-10.6-10.4H247v9.2h12.4v1.8zm20.7-11v11H310v-11h-29.8zM139.1 99.3h7.5v-11h-7.5v11zm87-38.4v12.7h16.8a20 20 0 00-16.8-12.7zM116.5 78.5v1.9h-3.7v-1.9H94.9l-.1 1.9.3 3h39.2l.3-3-.1-1.9h-18zm148.3 4.9c3.8 0 7.1-2 8.9-4.9H247v4.9h17.8zm-1.5 4.9v11H277l-8.4-11h-5.3zm25.6-4.9h12.4v-4.9h-12.4v4.9zm0 15.9h12.4v-11h-12.4v11zm-41.8 0h12.4v-11h-12.4v11zm-21-20.8v1.9h-3.7v-1.9h-17.9l-.1 1.9.3 3h39.2l.3-3-.1-1.9h-18zm-53 20.8h12.4v-11h-12.4v11zm-22.8 0h18.6v-11h-18.6v11zm-11.2-15.9h29.8v-4.9h-29.8v4.9zm85.1 16.6a20 20 0 0018.2-11.7H206a20 20 0 0018.2 11.7zm-51.1-16.6H193v-4.9h-19.9v4.9z"/></symbol>

  <symbol id="prev" viewBox="0 0 168 448"><path d="M156.8 136c0 2-1 4.3-2.6 5.8L56 240l98.3 98.3c1.4 1.4 2.4 3.7 2.4 5.7s-1 4.3-2.4 5.8l-12.6 12.4c-1.4 1.6-3.7 2.6-5.7 2.6s-4.3-1-5.8-2.6L13.8 245.8c-1.6-1.6-2.6-3.8-2.6-5.8s1-4.3 2.6-5.8l116.5-116.4c1.4-1.5 3.7-2.5 5.7-2.5s4.3 1 5.8 2.5l12.4 12.5a8.1 8.1 0 012.6 5.7z"/></symbol>

  <symbol id="next" viewBox="0 0 152 448"><path d="M148.8 240c0 2-1 4.3-2.6 5.8L29.8 362.1c-1.6 1.6-3.8 2.6-5.8 2.6s-4.3-1-5.8-2.6L5.8 349.9a8.1 8.1 0 01-2.5-5.8c0-2 1-4.3 2.5-5.8L104 240 5.7 141.7c-1.5-1.4-2.5-3.7-2.5-5.7s1-4.3 2.5-5.8l12.6-12.4c1.4-1.5 3.7-2.5 5.7-2.5s4.3 1 5.8 2.5l116.5 116.5a8.6 8.6 0 012.4 5.7z"/></symbol>

  <symbol id="phone" viewBox="0 0 64 64"><path d="M49.4 39.2a5.8 5.8 0 00-4.3-2c-1.6 0-3.1.7-4.3 2l-4 4-1-.5-1.3-.7a42 42 0 01-13.8-14.9l2.9-2.9 1.1-1.1c2.7-2.7 2.7-6.1 0-8.8l-3.5-3.5L20 9.6l-2.4-2.4c-1.2-1.2-2.7-1.9-4.2-1.9s-3 .6-4.3 1.9l-4.3 4.3A10 10 0 002 17.4c-.3 3.7.8 7.2 1.6 9.4a60.2 60.2 0 0029.6 31.8c2.9 1.4 6.8 3 11.2 3.3h.8c2.9 0 5.4-1.1 7.3-3.1l.1-.1 2.2-2.3 1.6-1.6a5.8 5.8 0 00-.1-8.7l-6.9-6.9zM54 52.5L52.5 54c-.8.8-1.7 1.6-2.4 2.5a6 6 0 01-4.8 2h-.6c-3.8-.2-7.3-1.7-9.9-3A55 55 0 016.9 25.8a17.6 17.6 0 01-1.4-7.9c.1-1.5.7-2.7 1.8-3.8l4.3-4.3c.6-.6 1.3-.9 1.9-.9.8 0 1.4.5 1.9.9l2.3 2.3 1.2 1.2 3.5 3.5c1.3 1.3 1.3 2.6 0 3.9l-1.1 1.1-3.2 3.1-.1.1c-1.1 1.1-.9 2.2-.7 2.9v.1a44.7 44.7 0 0018.3 18.4l.2.1c.4.2.8.3 1.3.3 1.1 0 1.7-.7 1.9-.9l4.3-4.3c.4-.4 1.1-1 1.9-1 .8 0 1.4.5 1.8.9l7 7c1.3 1.4 1.3 2.7 0 4zM34.4 16.2c3.3.6 6.3 2.1 8.8 4.5s4 5.4 4.5 8.8c.1.8.9 1.4 1.7 1.4h.3c.9-.2 1.6-1 1.4-2a19.6 19.6 0 00-16.1-16c-.9-.2-1.8.5-2 1.4-.1.9.5 1.8 1.4 1.9zM62 28.5A32.3 32.3 0 0035.5 2c-.9-.2-1.8.5-2 1.4-.2.9.5 1.8 1.4 2a28.8 28.8 0 0123.7 23.7c.1.8.9 1.4 1.7 1.4h.3c.9-.2 1.5-1.1 1.4-2z"/></symbol>

  <!-- <symbol id="email" viewBox="0 0 64 64"><path d="M54.7 9.2H9.3c-4 0-7.3 3.3-7.3 7.3v31c0 4 3.3 7.3 7.3 7.3h45.3c4 0 7.3-3.3 7.3-7.3v-31c.1-4-3.2-7.3-7.2-7.3zm4 38.3a4 4 0 01-4 4H9.3a4 4 0 01-4-4v-31a4 4 0 014-4h45.3a4 4 0 014 4l.1 31zM39.8 31.6l14.7-13.2c.7-.6.7-1.7.1-2.4-.6-.6-1.6-.7-2.3 0L32 34.1l-3.9-3.5-.3-.2-16.1-14.5c-.7-.6-1.8-.6-2.4.1-.6.7-.6 1.8.1 2.4l14.8 13.3L9.5 45.6c-.7.6-.7 1.7-.1 2.4.3.3.8.5 1.2.5.4 0 .8-.1 1.1-.4l15-14 4.1 3.6c.3.3.7.4 1.1.4.4 0 .8-.1 1.1-.4l4.2-3.7 15.1 14c.3.3.7.5 1.2.5.4 0 .9-.2 1.2-.5.6-.7.6-1.7-.1-2.4l-14.8-14z"/></symbol> -->

  <symbol id="email" viewBox="0 0 64 64"><path d="M54.7 2H9.3C5.3 2 2 6.3 2 11.6v40.7C2 57.7 5.3 62 9.3 62h45.3c4 0 7.3-4.3 7.3-9.6V11.7C62 6.3 58.7 2 54.7 2zm4 50.4c0 2.9-1.8 5.2-4 5.2H9.3c-2.2 0-4-2.3-4-5.2V11.7c0-2.9 1.8-5.2 4-5.2h45.3c2.2 0 4 2.3 4 5.2l.1 40.7zM39.8 31.5l14.7-17.3c.7-.8.7-2.2.1-3.1-.6-.9-1.7-1-2.4-.2L32 34.8l-3.9-4.6-.3-.3-16.1-19c-.7-.8-1.8-.7-2.4.2s-.6 2.3.1 3.1l14.8 17.4L9.5 49.8c-.7.8-.7 2.2-.1 3.1.3.5.8.7 1.2.7.4 0 .8-.2 1.1-.6l15-18.5 4.1 4.8c.3.4.7.6 1.1.6.4 0 .8-.2 1.1-.6l4.2-4.9L52.1 53c.3.4.7.6 1.2.6.4 0 .9-.2 1.2-.7.6-.9.6-2.3-.1-3.1L39.8 31.5z"/></symbol>

  <symbol id="address" viewBox="0 0 64 64"><path d="M32 2A24.1 24.1 0 008.3 30.6l.2.8a26 26 0 001.6 4.7 67.3 67.3 0 0020.8 25.5c.3.3.7.4 1.1.4.4 0 .8-.1 1.1-.4a67.3 67.3 0 0020.8-25.5 26 26 0 001.6-4.7l.2-.8A24.2 24.2 0 0032 2zm20.3 28l-.1.6c-.3 1.4-.8 2.8-1.4 4.1v.1a62.7 62.7 0 01-18.7 23.3 63.2 63.2 0 01-18.7-23.3v-.1c-.6-1.3-1.1-2.7-1.4-4.1l-.1-.5V30A20.7 20.7 0 0132.2 5.4c11.4 0 20.4 9.3 20.4 20.6a26 26 0 01-.3 4zM32 11c-8.4 0-15.3 6.9-15.3 15.3S23.6 41.6 32 41.6s15.3-6.9 15.3-15.3S40.4 11 32 11zm0 27.2c-6.6 0-11.9-5.3-11.9-11.9S25.4 14.4 32 14.4s11.9 5.3 11.9 11.9S38.5 38.2 32 38.2z"/></symbol>

  <symbol id="facebook" viewBox="0 0 64 64"><path d="M10.8 62h19.6V40.7h-7v-7h7v-8.8c0-4.8 3.9-8.8 8.8-8.8H48v7h-7a3.5 3.5 0 00-3.5 3.5v7h10.2l-1.2 7h-9.1V62h15.8c4.8 0 8.8-3.9 8.8-8.8V10.8C62 5.9 58.1 2 53.2 2H10.8A8.7 8.7 0 002 10.8v42.4c0 4.9 3.9 8.8 8.8 8.8zM5.5 10.8c0-2.9 2.4-5.3 5.3-5.3h42.4c2.9 0 5.3 2.4 5.3 5.3v42.4c0 2.9-2.4 5.3-5.3 5.3H40.9V44.2h8.5l2.3-14.1H40.9v-3.5h10.5V12.5H39.1c-6.8 0-12.3 5.5-12.3 12.3v5.3h-7v14.1h7v14.3h-16a5.3 5.3 0 01-5.3-5.3V10.8z"/></symbol>

  <symbol id="instagram" viewBox="0 0 64 64"><path d="M10.8 62h42.4c4.8 0 8.8-3.9 8.8-8.8V10.8C62 5.9 58.1 2 53.2 2H10.8A8.7 8.7 0 002 10.8v42.4c0 4.9 3.9 8.8 8.8 8.8zM5.5 10.8c0-2.9 2.4-5.3 5.3-5.3h42.4c2.9 0 5.3 2.4 5.3 5.3v42.4c0 2.9-2.4 5.3-5.3 5.3H10.8a5.3 5.3 0 01-5.3-5.3V10.8zm26.5 37a15.8 15.8 0 000-31.6 15.8 15.8 0 000 31.6zm0-28.1a12.3 12.3 0 110 24.6 12.3 12.3 0 010-24.6zm17.6 0c2.9 0 5.3-2.4 5.3-5.3s-2.4-5.3-5.3-5.3-5.3 2.4-5.3 5.3 2.4 5.3 5.3 5.3zm0-7c1 0 1.8.8 1.8 1.8s-.8 1.8-1.8 1.8-1.8-.8-1.8-1.8.8-1.8 1.8-1.8z"/></symbol>

  <symbol id="search" viewBox="0 0 64 64"><path d="M18.6 15.7c-.9-.9-2.3-.9-3.1 0A15 15 0 0011.2 28c.1 1.1 1.1 2 2.2 2h.2a2.2 2.2 0 002-2.4c-.3-3.3.8-6.4 3.1-8.7.7-1 .7-2.4-.1-3.2zm42.8 42.5L46.8 43.6A25.4 25.4 0 0027.3 2C13.4 2 2 13.4 2 27.3a25.4 25.4 0 0041.6 19.4l14.6 14.6a2.5 2.5 0 003.2 0c.8-.8.8-2.2 0-3.1zm-55-30.9A21 21 0 0127.3 6.4a21 21 0 0115 35.5l-.2.2-.2.2a20.7 20.7 0 01-14.6 5.9A20.8 20.8 0 016.4 27.3z"/></symbol>

  <symbol id="star" viewBox="0 0 64 64"><path d="M59.6 27.3a4.3 4.3 0 001.1-4.4 4 4 0 00-3.5-2.9l-14.3-2.1c-.3 0-.5-.2-.6-.5l-6.4-13A4.3 4.3 0 0032 2c-1.7 0-3.1.9-3.9 2.4l-6.4 13c-.1.3-.4.4-.6.5l-14.3 2a4.3 4.3 0 00-2.4 7.3l10.3 10.1c.2.2.3.5.2.8l-2.4 14.2c-.3 1.6.4 3.2 1.7 4.2 1.3 1 3.1 1.1 4.5.3l12.8-6.7c.3-.1.6-.1.8 0l12.8 6.7c.6.3 1.3.5 2 .5.9 0 1.8-.3 2.5-.8 1.3-1 2-2.6 1.7-4.2L49 38.1c0-.3 0-.6.2-.8l10.4-10zm-14 11.4L48 52.9c.1.5-.2.7-.3.8-.1.1-.5.3-.9.1L34 47.1c-.6-.3-1.3-.5-2-.5s-1.4.2-2 .5l-12.8 6.7c-.4.2-.8 0-.9-.1-.1-.1-.4-.4-.3-.8l2.4-14.2c.2-1.4-.2-2.8-1.2-3.8L6.8 24.8c-.3-.3-.3-.7-.2-.9 0-.2.2-.5.7-.6l14.3-2.1a4.2 4.2 0 003.2-2.4l6.4-13c.2-.4.6-.5.8-.5.2 0 .6 0 .8.5l6.4 13a4.2 4.2 0 003.2 2.4l14.3 2.1c.5.1.6.4.7.6 0 .2.1.5-.2.9L46.8 34.9c-1 1-1.4 2.4-1.2 3.8zm4.4-31c-.8-.6-1.8-.4-2.4.4l-1.8 2.5c-.6.8-.4 1.8.4 2.4.3.2.7.3 1 .3.5 0 1.1-.2 1.4-.7l1.8-2.5c.5-.8.3-1.9-.4-2.4zm-31.7 2.9L16.4 8c-.6-.8-1.6-.9-2.4-.4-.8.6-.9 1.6-.4 2.4l1.8 2.5c.3.5.9.7 1.4.7.4 0 .7-.1 1-.3.9-.5 1-1.6.5-2.3zM10 40.7a1.8 1.8 0 00-2.2-1.1l-3 1c-.9.3-1.4 1.3-1.1 2.2.2.7.9 1.2 1.6 1.2l.5-.1 3-1c1-.4 1.5-1.3 1.2-2.2zm22 14.7c-1 0-1.7.8-1.7 1.7v3.1c0 1 .8 1.7 1.7 1.7s1.7-.8 1.7-1.7v-3.1c0-.9-.7-1.7-1.7-1.7zm27.1-16l-3-1c-.9-.3-1.9.2-2.2 1.1-.3.9.2 1.9 1.1 2.2l3 1 .5.1c.7 0 1.4-.5 1.6-1.2.4-.9-.1-1.9-1-2.2z"/></symbol>

  <symbol id="cart" viewBox="0 0 64 64"><path d="M60.3 13.4a5.8 5.8 0 00-4.5-2H13.1l-.4-3.2C12.2 4.7 9.8 2 7.2 2H4c-1 0-1.8.8-1.8 1.8S3.1 5.5 4 5.5h3.1c.6 0 1.8 1.2 2 3.1l5 37.7a7.2 7.2 0 002.4 4.4c1 .9 2.2 1.4 3.4 1.7a6.5 6.5 0 1011.5.2h9.2a6.5 6.5 0 1011.6 0h4.6c1 0 1.8-.8 1.8-1.8s-.8-1.8-1.8-1.8H21.3c-1.7 0-3.4-1.4-3.6-3.1l-.4-2.8H52c1.7 0 3.3-.6 4.7-1.8a7.2 7.2 0 002.4-4.4L61.6 18c.3-1.7-.2-3.3-1.3-4.6zM28.6 55.5a2.9 2.9 0 11-5.8 0 2.9 2.9 0 015.8 0zm20.8 0a2.9 2.9 0 11-5.8 0 2.9 2.9 0 015.8 0zm8.2-39.8c.4.5.6 1.2.5 1.9L57 25.5H45l.7-10.6h10c.9 0 1.5.3 1.9.8zm-24.9 24L32 29.1h9.4l-.7 10.6h-8zm-1-14.2L31 14.9h11.3l-.7 10.6h-9.9zm-4.2-10.6l.7 10.6H15l-1.4-10.6h13.9zm-12 14.2h13l.7 10.6H16.9l-1.4-10.6zm36.6 10.6h-7.9l.7-10.6h11.7l-1 7.5a3.7 3.7 0 01-3.5 3.1z"/></symbol>

  <symbol id="close" viewBox="0 0 20 20"><path d="M1 0l19 19-1 1L0 1zm18 0l1 1L1 20l-1-1z"/></symbol>



</svg>
